<svg width="12" height="12" viewBox="0 0 12 12" fill="none" xmlns="http://www.w3.org/2000/svg">
<path d="M10.5968 0.948182C10.2898 0.641206 9.87346 0.46875 9.43932 0.46875C9.00517 0.46875 8.58881 0.641206 8.28182 0.948182L1.79282 7.43718C1.74855 7.48161 1.71651 7.53673 1.69982 7.59718L0.842813 10.6782C0.825605 10.7403 0.825185 10.8058 0.841593 10.8681C0.858 10.9304 0.890649 10.9872 0.936205 11.0328C0.98176 11.0783 1.03859 11.111 1.10089 11.1274C1.16319 11.1438 1.22873 11.1434 1.29082 11.1262L4.37181 10.2732C4.43227 10.2565 4.48739 10.2244 4.53182 10.1802L11.0208 3.69118C11.3273 3.38393 11.4994 2.96766 11.4994 2.53368C11.4994 2.0997 11.3273 1.68344 11.0208 1.37618L10.5968 0.948182ZM2.58582 7.67318L7.89681 2.36218L9.60982 4.07518L4.29881 9.38618L2.58582 7.67318ZM2.24381 8.36018L3.61182 9.72818L1.71881 10.2522L2.24381 8.36018ZM10.5098 3.17518L10.1238 3.56118L8.41081 1.84818L8.79682 1.46218C8.88123 1.3777 8.98147 1.31068 9.0918 1.26496C9.20213 1.21924 9.32038 1.1957 9.43981 1.1957C9.55924 1.1957 9.67751 1.21924 9.78784 1.26496C9.89817 1.31068 9.9984 1.3777 10.0828 1.46218L10.5098 1.88918C10.6798 2.06006 10.7752 2.29135 10.775 2.53239C10.7748 2.77343 10.6791 3.00457 10.5088 3.17518H10.5098Z" fill="#303841"/>
</svg>
