<svg width="82" height="97" viewBox="0 0 82 97" fill="none" xmlns="http://www.w3.org/2000/svg">
<path opacity="0.69" fill-rule="evenodd" clip-rule="evenodd" d="M81.984 80.8214C73.8255 88.4518 63.6874 93.6627 52.7054 95.8471C41.0665 98.1623 29.0025 96.9741 18.039 92.4328C11.3487 89.6616 5.25166 85.7178 0.0169678 80.8223C0.216003 73.8268 2.20453 66.9521 5.85255 60.8781C10.8573 52.5452 18.6598 46.2615 27.868 43.148C23.8087 40.3474 20.7511 36.3223 19.1416 31.6607C17.5321 26.999 17.4551 21.9449 18.9218 17.2363C20.3885 12.5278 23.3221 8.41146 27.2942 5.48843C31.2663 2.5654 36.0688 0.98877 41.0005 0.98877C45.9322 0.98877 50.7347 2.5654 54.7068 5.48843C58.6788 8.41146 61.6124 12.5278 63.0791 17.2363C64.5458 21.9449 64.4688 26.999 62.8593 31.6607C61.2499 36.3223 58.1923 40.3474 54.133 43.148C63.3412 46.2615 71.1437 52.5452 76.1484 60.8781C79.7963 66.9518 81.7848 73.8262 81.984 80.8214Z" fill="#1D1E2C"/>
<path d="M57.875 28.25H50.125L46 23.25H36L31.875 28.25H24.125C23.6277 28.25 23.1508 28.4475 22.7992 28.7992C22.4475 29.1508 22.25 29.6277 22.25 30.125V48.875C22.25 49.3723 22.4475 49.8492 22.7992 50.2008C23.1508 50.5525 23.6277 50.75 24.125 50.75H57.875C58.3723 50.75 58.8492 50.5525 59.2008 50.2008C59.5525 49.8492 59.75 49.3723 59.75 48.875V30.125C59.75 29.6277 59.5525 29.1508 59.2008 28.7992C58.8492 28.4475 58.3723 28.25 57.875 28.25Z" stroke="white" stroke-width="2" stroke-miterlimit="10" stroke-linecap="round" stroke-linejoin="round"/>
<path d="M41 47C45.8325 47 49.75 43.0825 49.75 38.25C49.75 33.4175 45.8325 29.5 41 29.5C36.1675 29.5 32.25 33.4175 32.25 38.25C32.25 43.0825 36.1675 47 41 47Z" stroke="white" stroke-width="2" stroke-miterlimit="10" stroke-linecap="round" stroke-linejoin="round"/>
<path d="M54.75 33.875C55.0952 33.875 55.375 33.5952 55.375 33.25C55.375 32.9048 55.0952 32.625 54.75 32.625C54.4048 32.625 54.125 32.9048 54.125 33.25C54.125 33.5952 54.4048 33.875 54.75 33.875Z" stroke="white" stroke-width="2" stroke-miterlimit="10" stroke-linecap="round" stroke-linejoin="round"/>
<path d="M41 42C43.0711 42 44.75 40.3211 44.75 38.25C44.75 36.1789 43.0711 34.5 41 34.5C38.9289 34.5 37.25 36.1789 37.25 38.25C37.25 40.3211 38.9289 42 41 42Z" stroke="white" stroke-width="2" stroke-miterlimit="10" stroke-linecap="round" stroke-linejoin="round"/>
</svg>
